<svg xmlns="http://www.w3.org/2000/svg" version="1.1" xmlns:xlink="http://www.w3.org/1999/xlink" width="1500" height="1500" viewBox="0 0 1500 1500"><rect width="1500" height="1500" x="0" y="0" id="background" stroke="transparent" fill="#121212"></rect><svg xml:space="preserve" width="1000" height="1000" data-version="2" data-id="lg_8v3SrpvN0LOsfYtftT" viewBox="0 0 560 85" x="250" y="250"><rect width="100%" height="100%" fill="transparent"></rect><path fill="#b2b2b2" d="M56.725 81.815H5.365V6.895h51.36v14.99h-36.36v15h24.61v14.99h-24.61v14.94h36.36Z"></path><rect width="51.36" height="74.92" x="-25.68" y="-37.46" fill="none" rx="0" ry="0" transform="translate(31.55 44.85)"></rect><path fill="#b2b2b2" d="M119.685 81.815h-52.46V6.895h15v59.92h37.46Z"></path><rect width="52.46" height="74.92" x="-26.23" y="-37.46" fill="none" rx="0" ry="0" transform="translate(93.95 44.85)"></rect><path fill="#b2b2b2" d="M146.795 68.125q.84.26 1.67.34.84.08 1.68.08 2.09 0 4.02-.58 1.93-.57 3.63-1.64 1.7-1.07 3.03-2.62 1.33-1.54 2.17-3.42l10.45 10.5q-1.99 2.83-4.57 5.07-2.59 2.25-5.59 3.82-3.01 1.56-6.33 2.37-3.31.81-6.81.81-5.91 0-11.11-2.19-5.19-2.2-9.09-6.11-3.89-3.92-6.14-9.33-2.24-5.41-2.24-11.89 0-6.63 2.24-12.12 2.25-5.48 6.14-9.35 3.9-3.87 9.09-6.01 5.2-2.14 11.11-2.14 3.5 0 6.84.84 3.34.83 6.35 2.4 3 1.57 5.62 3.84 2.61 2.27 4.59 5.09Zm7.32-29.42q-1-.36-1.96-.47-.97-.1-2.01-.1-2.93 0-5.52 1.07-2.58 1.07-4.49 3.06-1.91 1.98-3 4.78-1.1 2.79-1.1 6.29 0 .79.08 1.78t.26 2.01q.18 1.02.44 1.96t.68 1.67Z"></path><rect width="51.98" height="59.14" x="-25.99" y="-29.57" fill="none" rx="0" ry="0" transform="translate(148.06 53.78)"></rect><path fill="#b2b2b2" d="M234.465 81.815h-3.45l-5.53-7.68q-2.04 1.83-4.32 3.42-2.27 1.59-4.78 2.77-2.5 1.17-5.14 1.85-2.64.68-5.36.68-5.9 0-11.1-1.98-5.2-1.99-9.09-5.78-3.89-3.78-6.14-9.27-2.25-5.49-2.25-12.49 0-6.53 2.25-11.99t6.14-9.38q3.89-3.91 9.09-6.08 5.2-2.17 11.1-2.17 2.72 0 5.38.68 2.67.68 5.18 1.88 2.5 1.2 4.78 2.82 2.27 1.62 4.26 3.5l5.53-6.63h3.45Zm-14.37-28.48q0-2.92-1.12-5.67-1.12-2.74-3.06-4.85-1.93-2.12-4.52-3.4-2.58-1.28-5.51-1.28-2.92 0-5.51.99-2.59 1-4.49 2.93-1.91 1.93-3.01 4.78-1.09 2.85-1.09 6.5 0 3.66 1.09 6.51 1.1 2.85 3.01 4.78 1.9 1.93 4.49 2.92 2.59 1 5.51 1 2.93 0 5.51-1.28 2.59-1.28 4.52-3.4 1.94-2.11 3.06-4.86 1.12-2.74 1.12-5.67"></path><rect width="57.16" height="59.14" x="-28.58" y="-29.57" fill="none" rx="0" ry="0" transform="translate(206.38 53.78)"></rect><path fill="#b2b2b2" d="M259.595 81.815h-14.26v-55.96h3.45l4.7 6.64q3.45-3.14 7.84-4.84 4.38-1.69 9.09-1.69h12.59v14.21h-12.59q-2.25 0-4.24.83-1.98.84-3.44 2.3-1.47 1.47-2.3 3.45-.84 1.99-.84 4.23Z"></path><rect width="37.67" height="55.96" x="-18.84" y="-27.98" fill="none" rx="0" ry="0" transform="translate(264.67 54.34)"></rect><path fill="#b2b2b2" d="M303.905 81.815h-14.27v-55.96h3.45l4.7 5.44q3.45-3.14 7.81-4.84 4.37-1.69 9.12-1.69 5.12 0 9.67 1.95 4.54 1.96 7.94 5.39 3.39 3.42 5.35 7.99 1.96 4.57 1.96 9.74v31.98h-14.26v-31.98q0-2.19-.84-4.15-.83-1.96-2.29-3.42-1.47-1.47-3.4-2.3-1.93-.84-4.13-.84-2.24 0-4.23.84-1.99.83-3.45 2.3-1.46 1.46-2.3 3.42-.83 1.96-.83 4.15Z"></path><rect width="50" height="57.05" x="-25" y="-28.52" fill="none" rx="0" ry="0" transform="translate(315.13 53.79)"></rect><path fill="#b2b2b2" d="M382.745 81.815h-14.95v-59.93h-22.51V6.895h59.92v14.99h-22.46Z"></path><rect width="59.92" height="74.92" x="-29.96" y="-37.46" fill="none" rx="0" ry="0" transform="translate(375.75 44.85)"></rect><path fill="#b2b2b2" d="M425.895 81.815h-14.26V3.605h14.26v24.71q2.56-1.94 5.28-2.75 2.71-.8 5.54-.8 5.17 0 9.71 1.95 4.55 1.96 7.92 5.39 3.37 3.42 5.33 7.99t1.96 9.74v31.98h-14.37v-31.98h.1q0-2.19-.83-4.15-.84-1.96-2.3-3.42-1.46-1.47-3.4-2.3-1.93-.84-4.12-.84-2.25 0-4.24.84-1.98.83-3.44 2.3-1.47 1.46-2.3 3.42-.84 1.96-.84 4.15Z"></path><rect width="50" height="78.21" x="-25" y="-39.1" fill="none" rx="0" ry="0" transform="translate(437.13 43.21)"></rect><path fill="#b2b2b2" d="M525.945 81.815h-3.45l-5.53-7.68q-2.04 1.83-4.31 3.42-2.28 1.59-4.78 2.77-2.51 1.17-5.15 1.85-2.64.68-5.36.68-5.9 0-11.1-1.98-5.2-1.99-9.09-5.78-3.89-3.78-6.14-9.27-2.24-5.49-2.24-12.49 0-6.53 2.24-11.99 2.25-5.46 6.14-9.38 3.89-3.91 9.09-6.08 5.2-2.17 11.1-2.17 2.72 0 5.39.68 2.66.68 5.17 1.88 2.51 1.2 4.78 2.82 2.27 1.62 4.26 3.5l5.53-6.63h3.45Zm-14.37-28.48q0-2.92-1.12-5.67-1.12-2.74-3.05-4.85-1.94-2.12-4.52-3.4-2.59-1.28-5.52-1.28-2.92 0-5.51.99-2.58 1-4.49 2.93-1.91 1.93-3.01 4.78-1.09 2.85-1.09 6.5 0 3.66 1.09 6.51 1.1 2.85 3.01 4.78 1.91 1.93 4.49 2.92 2.59 1 5.51 1 2.93 0 5.52-1.28 2.58-1.28 4.52-3.4 1.93-2.11 3.05-4.86 1.12-2.74 1.12-5.67"></path><rect width="57.15" height="59.14" x="-28.57" y="-29.57" fill="none" rx="0" ry="0" transform="translate(497.87 53.78)"></rect><path fill="#b2b2b2" d="M553.635 10.655q0 1.98-.75 3.71-.76 1.72-2.07 3-1.3 1.28-3.05 2.04-1.75.76-3.74.76-1.99 0-3.74-.76-1.75-.76-3.03-2.04-1.28-1.28-2.03-3-.76-1.73-.76-3.71 0-1.93.76-3.68.75-1.76 2.03-3.04 1.28-1.28 3.03-2.03 1.75-.76 3.74-.76 1.99 0 3.74.76 1.75.75 3.05 2.03 1.31 1.28 2.07 3.04.75 1.75.75 3.68m-2.45 71.16h-14.37v-55.96h14.37Z"></path><rect width="19.17" height="80.67" x="-9.59" y="-40.34" fill="none" rx="0" ry="0" transform="translate(544.55 41.98)"></rect></svg></svg>